<svg width="47" height="46" viewBox="0 0 47 46" fill="none" xmlns="http://www.w3.org/2000/svg">
<path d="M44.3981 0.260742C44.6897 0.260742 44.9814 0.31543 45.2731 0.424805C45.5647 0.53418 45.8199 0.698242 46.0387 0.916992C46.2574 1.13574 46.4306 1.39095 46.5582 1.68262C46.6858 1.97428 46.7496 2.28418 46.7496 2.6123V35.2607C46.7496 35.5524 46.6858 35.8441 46.5582 36.1357C46.4306 36.4274 46.2574 36.6826 46.0387 36.9014C45.8199 37.1201 45.5647 37.2933 45.2731 37.4209C44.9814 37.5485 44.6897 37.6123 44.3981 37.6123H10.4371L0.0465088 45.7607V2.6123C0.0465088 2.28418 0.110311 1.97428 0.237915 1.68262C0.365519 1.39095 0.538696 1.13574 0.757446 0.916992C0.976196 0.698242 1.2314 0.53418 1.52307 0.424805C1.81474 0.31543 2.1064 0.260742 2.39807 0.260742H44.3981ZM20.9918 12.1826L19.9528 10.542C17.8382 11.4535 16.1337 12.766 14.8395 14.4795C13.5452 16.193 12.8981 18.0706 12.8981 20.1123C12.8981 21.279 13.053 22.2451 13.3629 23.0107C13.6728 23.7764 14.1377 24.4873 14.7574 25.1436C15.122 25.5446 15.5869 25.8727 16.152 26.1279C16.7171 26.3831 17.3095 26.5107 17.9293 26.5107C18.221 26.5107 18.4944 26.4834 18.7496 26.4287C19.0048 26.374 19.2601 26.292 19.5153 26.1826C19.7705 26.1097 20.0074 25.9912 20.2262 25.8271C20.4449 25.6631 20.6455 25.4899 20.8278 25.3076C21.0101 25.1253 21.1832 24.9248 21.3473 24.7061C21.5114 24.4873 21.6298 24.2503 21.7028 23.9951C21.8121 23.7399 21.8942 23.4847 21.9489 23.2295C22.0035 22.9743 22.0309 22.7008 22.0309 22.4092C22.0309 21.3519 21.6663 20.4404 20.9371 19.6748C20.208 18.9092 19.3147 18.4717 18.2574 18.3623C18.0752 18.3258 17.8929 18.3167 17.7106 18.335C17.5283 18.3532 17.346 18.3623 17.1637 18.3623V18.1436C17.1637 17.6696 17.3278 16.8402 17.6559 15.6553C17.984 14.4704 18.9502 13.3857 20.5543 12.4014L20.9918 12.1826ZM31.6012 10.542C29.5231 11.4535 27.8278 12.766 26.5153 14.4795C25.2028 16.193 24.5465 18.0706 24.5465 20.1123C24.5465 21.279 24.7106 22.2451 25.0387 23.0107C25.3668 23.7764 25.8226 24.4873 26.4059 25.1436C26.7705 25.5446 27.2444 25.8727 27.8278 26.1279C28.4111 26.3831 29.0127 26.5107 29.6324 26.5107C30.1793 26.5107 30.6989 26.4105 31.191 26.21C31.6832 26.0094 32.1298 25.7087 32.5309 25.3076C32.8955 24.943 33.178 24.5055 33.3785 23.9951C33.5791 23.4847 33.6793 22.9561 33.6793 22.4092C33.6793 21.3519 33.3147 20.4404 32.5856 19.6748C31.8564 18.9092 30.9814 18.4717 29.9606 18.3623C29.7418 18.3258 29.5413 18.3167 29.359 18.335C29.1767 18.3532 28.9944 18.3623 28.8121 18.3623C28.8121 17.9977 28.9671 17.1318 29.277 15.7646C29.5869 14.3975 30.708 13.2035 32.6403 12.1826L31.6012 10.542Z" fill="black"/>
</svg>
